# xmcd
#
# Track frame offsets:
#	150
#	22542
#	38045
#	53700
#	67182
#	83502
#	98060
#	114845
#	133710
#	150235
#	164642
#	175395
#	189120
#	207390
#	223480
#
# Disc length: 3255 seconds
#
# Revision: 1
# Processed by: cddbd v1.5.2PL0 Copyright (c) Steve Scherf et al.
# Submitted via: EZCDAudioConverter 2.1.4.1
#
DISCID=c10cb50f
DTITLE=Calcinha Preta - Arrepiando A Galara Ao vivo
DYEAR=1900
DGENRE=Forró
TTITLE0=Amor e Paixão
TTITLE1=Homem Gol
TTITLE2=Onde o Sonho Mora
TTITLE3=Vaqueiro Apaixonado
TTITLE4=Pour Porri de Vaquejada
TTITLE5=Te Amo mesmo assim
TTITLE6=O Colecionador de Calcinha
TTITLE7=Arrepia
TTITLE8=Não Tem Jeito
TTITLE9=Renato Russo
TTITLE10=Calcinha Preta
TTITLE11=Frei Damião
TTITLE12=Não me Abandone
TTITLE13=Te Amo de Verdade
TTITLE14=Forró da Mulher Carente
EXTD=
EXTT0=
EXTT1=
EXTT2=
EXTT3=
EXTT4=
EXTT5=
EXTT6=
EXTT7=
EXTT8=
EXTT9=
EXTT10=
EXTT11=
EXTT12=
EXTT13=
EXTT14=
PLAYORDER=
